<svg width="64" height="64" viewBox="0 0 64 64" fill="none" xmlns="http://www.w3.org/2000/svg">
  <defs>
    <linearGradient id="p" x1="8" y1="8" x2="58" y2="58" gradientUnits="userSpaceOnUse">
      <stop stop-color="#8170ff"/>
      <stop offset="0.5" stop-color="#5a39de"/>
      <stop offset="1" stop-color="#8f4cff"/>
    </linearGradient>
  </defs>
  <circle cx="30" cy="30" r="24" fill="url(#p)"/>
  <circle cx="30" cy="30" r="18" fill="#090912" stroke="#20202a" stroke-width="4"/>
  <circle cx="30" cy="30" r="15" stroke="#e4e6ff" stroke-width="4.5" stroke-dasharray="48 15" stroke-linecap="round" transform="rotate(-32 30 30)"/>
  <path d="M22 20h19M22 27h15M22 34h12" stroke="#8c65ff" stroke-width="4" stroke-linecap="round"/>
  <path d="M24 20c10 0 16 5 16 13 0 8-7 13-16 13h-2l17 13" stroke="#0a0a12" stroke-width="4.5" stroke-linecap="round" stroke-linejoin="round"/>
  <path d="M24 20c10 0 16 5 16 13 0 8-7 13-16 13h-2l17 13" stroke="#7b55f5" stroke-width="2.8" stroke-linecap="round" stroke-linejoin="round"/>
  <path d="M47 47l10 10" stroke="url(#p)" stroke-width="8" stroke-linecap="round"/>
  <circle cx="30" cy="30" r="24" stroke="#0d0d15" stroke-width="2"/>
</svg>
